<svg width="48" height="48" viewBox="0 0 48 48" fill="none" xmlns="http://www.w3.org/2000/svg">
<path d="M30.3077 16.3076C30.3077 19.623 27.6232 22.3076 24.3077 22.3076C20.9923 22.3076 18.3077 19.623 18.3077 16.3076C18.3077 12.9922 20.9923 10.3076 24.3077 10.3076C27.6232 10.3076 30.3077 12.9922 30.3077 16.3076ZM10.3077 36.3076C10.3077 35.7122 10.5901 35.0426 11.4133 34.2829C12.25 33.5107 13.5048 32.7878 15.049 32.1692C18.1406 30.9307 21.8878 30.3076 24.3077 30.3076C26.7277 30.3076 30.4749 30.9307 33.5665 32.1692C35.1107 32.7878 36.3655 33.5107 37.2022 34.2829C38.0253 35.0426 38.3077 35.7122 38.3077 36.3076V38.3076H10.3077V36.3076Z" stroke="#2F4560" stroke-width="4" stroke-linejoin="bevel"/>
</svg>
