<svg width="444" height="326" viewBox="0 0 444 326" fill="none" xmlns="http://www.w3.org/2000/svg">
<g filter="url(#filter0_f_117_27)">
<ellipse cx="222" cy="314" rx="79" ry="4" fill="#B89696"/>
</g>
<path d="M266 289.75L264.5 277.75H179.875L178 289.75C178 295.978 170.052 299.31 165.36 307.819C163.889 310.486 165.817 313.75 168.863 313.75H275.138C278.184 313.75 280.112 310.487 278.641 307.819C273.949 299.31 266.001 295.978 266.001 289.75H266Z" fill="#C8C8C8"/>
<path d="M0 250H444V270C444 274.415 440.415 278 436 278H8C3.585 278 0 274.415 0 270V250Z" fill="#EFEFEF"/>
<path d="M436 0H8C3.582 0 0 3.582 0 8V249.75H444V8C444 3.582 440.418 0 436 0ZM432 235.75C432 236.855 431.105 237.75 430 237.75H14C12.895 237.75 12 236.855 12 235.75V14C12 12.895 12.895 12 14 12H430C431.105 12 432 12.895 432 14V235.75Z" fill="white"/>
<defs>
<filter id="filter0_f_117_27" x="135" y="302" width="174" height="24" filterUnits="userSpaceOnUse" color-interpolation-filters="sRGB">
<feFlood flood-opacity="0" result="BackgroundImageFix"/>
<feBlend mode="normal" in="SourceGraphic" in2="BackgroundImageFix" result="shape"/>
<feGaussianBlur stdDeviation="4" result="effect1_foregroundBlur_117_27"/>
</filter>
</defs>
</svg>
